<?xml version="1.0" encoding="utf-8"?>
<!-- Generator: Adobe Illustrator 18.1.1, SVG Export Plug-In . SVG Version: 6.00 Build 0)  -->
<!DOCTYPE svg PUBLIC "-//W3C//DTD SVG 1.0//EN" "http://www.w3.org/TR/2001/REC-SVG-20010904/DTD/svg10.dtd">
<svg version="1.0" id="Layer_1" xmlns="http://www.w3.org/2000/svg" xmlns:xlink="http://www.w3.org/1999/xlink" x="0px" y="0px"
	 width="158.4px" height="159.4px" viewBox="0 0 158.4 159.4" enable-background="new 0 0 158.4 159.4" xml:space="preserve">
<g>
	<g>
		<path fill="#D4A256" d="M120.1,56.6c0.2,0,0.4,0.1,0.5,0.4l0.7,2.6c0.1,0.3-0.1,0.5-0.4,0.6c-0.3,0.1-0.5-0.1-0.6-0.4l-0.7-2.6
			c-0.1-0.3,0.1-0.5,0.4-0.6C120,56.6,120.1,56.6,120.1,56.6z"/>
	</g>
	<g>
		<path fill="#D4A256" d="M56.6,120.1c0,0,0.1,0,0.1,0l2.6,0.7c0.3,0.1,0.4,0.3,0.4,0.6c-0.1,0.3-0.3,0.4-0.6,0.4l-2.6-0.7
			c-0.3-0.1-0.4-0.3-0.4-0.6C56.2,120.3,56.4,120.1,56.6,120.1z"/>
	</g>
	<g>
		<path fill="#D4A256" d="M143.4,80.7v1c-34.3,0-62.2,27.9-62.2,62.2h-1C80.2,109,108.5,80.7,143.4,80.7z"/>
	</g>
	<g>
		<path fill="#D4A256" d="M143.4,86.4v1c-31.2,0-56.5,25.3-56.5,56.5h-1C85.9,112.2,111.7,86.4,143.4,86.4z"/>
	</g>
	<g>
		<path fill="#D4A256" d="M143.4,22c0.3,0,0.5,0.2,0.5,0.5v121.8H22c-0.3,0-0.5-0.2-0.5-0.5s0.2-0.5,0.5-0.5h120.8V22.5
			C142.9,22.2,143.1,22,143.4,22z"/>
	</g>
	<g>
		<path fill="#D4A256" d="M121.3,60.8c0.2,0,0.4,0.1,0.5,0.4l22.1,82.5c0.1,0.3-0.1,0.5-0.4,0.6c-0.3,0.1-0.5-0.1-0.6-0.4
			l-22.1-82.5c-0.1-0.3,0.1-0.5,0.4-0.6C121.2,60.8,121.2,60.8,121.3,60.8z"/>
	</g>
	<g>
		<path fill="#D4A256" d="M100.6,69.4c0.2,0,0.3,0.1,0.4,0.2l42.7,74c0.1,0.2,0.1,0.5-0.2,0.7c-0.2,0.1-0.5,0.1-0.7-0.2l-42.7-74
			c-0.1-0.2-0.1-0.5,0.2-0.7C100.5,69.4,100.6,69.4,100.6,69.4z"/>
	</g>
	<g>
		<path fill="#D4A256" d="M83,83c0.1,0,0.3,0,0.4,0.1l60.4,60.4c0.2,0.2,0.2,0.5,0,0.7s-0.5,0.2-0.7,0L82.6,83.8
			c-0.2-0.2-0.2-0.5,0-0.7C82.7,83,82.8,83,83,83z"/>
	</g>
	<g>
		<path fill="#D4A256" d="M81.1,81.1c0.1,0,0.3,0,0.4,0.1l0.8,0.8c0.2,0.2,0.2,0.5,0,0.7s-0.5,0.2-0.7,0l-0.8-0.8
			c-0.2-0.2-0.2-0.5,0-0.7C80.8,81.1,80.9,81.1,81.1,81.1z"/>
	</g>
	<g>
		<path fill="#D4A256" d="M79.8,79.8c0.1,0,0.3,0,0.4,0.1l0.3,0.3c0.2,0.2,0.2,0.5,0,0.7c-0.2,0.2-0.5,0.2-0.7,0l-0.3-0.3
			c-0.2-0.2-0.2-0.5,0-0.7C79.6,79.9,79.7,79.8,79.8,79.8z"/>
	</g>
	<g>
		<path fill="#D4A256" d="M69.4,100.6c0.1,0,0.2,0,0.2,0.1l74,42.7c0.2,0.1,0.3,0.4,0.2,0.7s-0.4,0.3-0.7,0.2l-74-42.7
			c-0.2-0.1-0.3-0.4-0.2-0.7C69,100.7,69.2,100.6,69.4,100.6z"/>
	</g>
	<g>
		<path fill="#D4A256" d="M60.8,121.3c0,0,0.1,0,0.1,0l82.5,22.1c0.3,0.1,0.4,0.3,0.4,0.6c-0.1,0.3-0.3,0.4-0.6,0.4l-82.5-22.1
			c-0.3-0.1-0.4-0.3-0.4-0.6C60.4,121.4,60.6,121.3,60.8,121.3z"/>
	</g>
	<g>
		<path fill="#D4A256" d="M11.6,143.4h6.2c0.3,0,0.5,0.2,0.5,0.5s-0.2,0.5-0.5,0.5h-6.2c-0.3,0-0.5-0.2-0.5-0.5
			S11.3,143.4,11.6,143.4z"/>
	</g>
	<g>
		<path fill="#D4A256" d="M143.4,11.6c0.3,0,0.5,0.2,0.5,0.5v6.2c0,0.3-0.2,0.5-0.5,0.5s-0.5-0.2-0.5-0.5v-6.2
			C142.9,11.8,143.1,11.6,143.4,11.6z"/>
	</g>
	<g>
		<circle fill="#18183F" cx="143.4" cy="143.9" r="3.5"/>
		<path fill="#D4A256" d="M143.4,139.9c2.2,0,4,1.8,4,4s-1.8,4-4,4c-2.2,0-4-1.8-4-4S141.2,139.9,143.4,139.9z M143.4,146.8
			c1.6,0,3-1.3,3-3s-1.3-3-3-3s-3,1.3-3,3S141.7,146.8,143.4,146.8z"/>
	</g>
</g>
</svg>
