<?xml version="1.0" encoding="utf-8"?>
<!-- Generator: Adobe Illustrator 18.1.1, SVG Export Plug-In . SVG Version: 6.00 Build 0)  -->
<!DOCTYPE svg PUBLIC "-//W3C//DTD SVG 1.0//EN" "http://www.w3.org/TR/2001/REC-SVG-20010904/DTD/svg10.dtd">
<svg version="1.0" id="Layer_1" xmlns="http://www.w3.org/2000/svg" xmlns:xlink="http://www.w3.org/1999/xlink" x="0px" y="0px"
	 width="158.4px" height="159.4px" viewBox="0 0 158.4 159.4" enable-background="new 0 0 158.4 159.4" xml:space="preserve">
<g>
	<g>
		<path fill="#D4A256" d="M38.3,56.6c-0.2,0-0.4,0.1-0.5,0.4l-0.7,2.6c-0.1,0.3,0.1,0.5,0.4,0.6c0.3,0.1,0.5-0.1,0.6-0.4l0.7-2.6
			c0.1-0.3-0.1-0.5-0.4-0.6C38.4,56.6,38.3,56.6,38.3,56.6z"/>
	</g>
	<g>
		<path fill="#D4A256" d="M101.8,120.1c0,0-0.1,0-0.1,0l-2.6,0.7c-0.3,0.1-0.4,0.3-0.4,0.6c0.1,0.3,0.3,0.4,0.6,0.4l2.6-0.7
			c0.3-0.1,0.4-0.3,0.4-0.6C102.2,120.3,102,120.1,101.8,120.1z"/>
	</g>
	<g>
		<path fill="#D4A256" d="M15,80.7v1c34.3,0,62.2,27.9,62.2,62.2h1C78.2,109,49.9,80.7,15,80.7z"/>
	</g>
	<g>
		<path fill="#D4A256" d="M15,86.4v1c31.2,0,56.5,25.3,56.5,56.5h1C72.5,112.2,46.7,86.4,15,86.4z"/>
	</g>
	<g>
		<path fill="#D4A256" d="M15,22c-0.3,0-0.5,0.2-0.5,0.5v121.8h121.8c0.3,0,0.5-0.2,0.5-0.5s-0.2-0.5-0.5-0.5H15.5V22.5
			C15.5,22.2,15.3,22,15,22z"/>
	</g>
	<g>
		<path fill="#D4A256" d="M37.1,60.8c-0.2,0-0.4,0.1-0.5,0.4l-22.1,82.5c-0.1,0.3,0.1,0.5,0.4,0.6c0.3,0.1,0.5-0.1,0.6-0.4
			l22.1-82.5c0.1-0.3-0.1-0.5-0.4-0.6C37.2,60.8,37.2,60.8,37.1,60.8z"/>
	</g>
	<g>
		<path fill="#D4A256" d="M57.8,69.4c-0.2,0-0.3,0.1-0.4,0.2l-42.7,74c-0.1,0.2-0.1,0.5,0.2,0.7c0.2,0.1,0.5,0.1,0.7-0.2l42.7-74
			c0.1-0.2,0.1-0.5-0.2-0.7C57.9,69.4,57.8,69.4,57.8,69.4z"/>
	</g>
	<g>
		<path fill="#D4A256" d="M75.4,83c-0.1,0-0.3,0-0.4,0.1l-60.4,60.4c-0.2,0.2-0.2,0.5,0,0.7s0.5,0.2,0.7,0l60.4-60.4
			c0.2-0.2,0.2-0.5,0-0.7C75.7,83,75.6,83,75.4,83z"/>
	</g>
	<g>
		<path fill="#D4A256" d="M77.3,81.1c-0.1,0-0.3,0-0.4,0.1L76.1,82c-0.2,0.2-0.2,0.5,0,0.7s0.5,0.2,0.7,0l0.8-0.8
			c0.2-0.2,0.2-0.5,0-0.7C77.6,81.1,77.5,81.1,77.3,81.1z"/>
	</g>
	<g>
		<path fill="#D4A256" d="M78.6,79.8c-0.1,0-0.3,0-0.4,0.1l-0.3,0.3c-0.2,0.2-0.2,0.5,0,0.7c0.2,0.2,0.5,0.2,0.7,0l0.3-0.3
			c0.2-0.2,0.2-0.5,0-0.7C78.8,79.9,78.7,79.8,78.6,79.8z"/>
	</g>
	<g>
		<path fill="#D4A256" d="M89,100.6c-0.1,0-0.2,0-0.2,0.1l-74,42.7c-0.2,0.1-0.3,0.4-0.2,0.7s0.4,0.3,0.7,0.2l74-42.7
			c0.2-0.1,0.3-0.4,0.2-0.7C89.4,100.7,89.2,100.6,89,100.6z"/>
	</g>
	<g>
		<path fill="#D4A256" d="M97.6,121.3c0,0-0.1,0-0.1,0l-82.5,22.1c-0.3,0.1-0.4,0.3-0.4,0.6c0.1,0.3,0.3,0.4,0.6,0.4l82.5-22.1
			c0.3-0.1,0.4-0.3,0.4-0.6C98,121.4,97.8,121.3,97.6,121.3z"/>
	</g>
	<g>
		<path fill="#D4A256" d="M146.8,143.4h-6.2c-0.3,0-0.5,0.2-0.5,0.5s0.2,0.5,0.5,0.5h6.2c0.3,0,0.5-0.2,0.5-0.5
			S147.1,143.4,146.8,143.4z"/>
	</g>
	<g>
		<path fill="#D4A256" d="M15,11.6c-0.3,0-0.5,0.2-0.5,0.5v6.2c0,0.3,0.2,0.5,0.5,0.5s0.5-0.2,0.5-0.5v-6.2
			C15.5,11.8,15.3,11.6,15,11.6z"/>
	</g>
	<g>
		<circle fill="#18183F" cx="15" cy="143.9" r="3.5"/>
		<path fill="#D4A256" d="M19,143.9c0,2.2-1.8,4-4,4c-2.2,0-4-1.8-4-4s1.8-4,4-4C17.2,139.9,19,141.7,19,143.9z M18,143.9
			c0-1.6-1.3-3-3-3s-3,1.3-3,3s1.3,3,3,3S18,145.5,18,143.9z"/>
	</g>
</g>
</svg>
