<?xml version="1.0" encoding="utf-8"?>
<!-- Generator: Adobe Illustrator 18.1.1, SVG Export Plug-In . SVG Version: 6.00 Build 0)  -->
<!DOCTYPE svg PUBLIC "-//W3C//DTD SVG 1.0//EN" "http://www.w3.org/TR/2001/REC-SVG-20010904/DTD/svg10.dtd">
<svg version="1.0" id="Layer_1" xmlns="http://www.w3.org/2000/svg" xmlns:xlink="http://www.w3.org/1999/xlink" x="0px" y="0px"
	 viewBox="-179 254.4 600 52.6" enable-background="new -179 254.4 600 52.6" xml:space="preserve">
<g>
	<line fill="none" stroke="#D4A256" stroke-linecap="round" stroke-miterlimit="10" x1="121" y1="304" x2="-155.4" y2="304"/>
	<line fill="none" stroke="#D4A256" stroke-linecap="round" stroke-miterlimit="10" x1="-159.5" y1="304" x2="-168.6" y2="304"/>
	<line fill="none" stroke="#D4A256" stroke-linecap="round" stroke-miterlimit="10" x1="121" y1="304" x2="80.6" y2="280.7"/>
	<line fill="none" stroke="#D4A256" stroke-linecap="round" stroke-miterlimit="10" x1="99.2" y1="266.1" x2="97.7" y2="263.6"/>
	<line fill="none" stroke="#D4A256" stroke-linecap="round" stroke-miterlimit="10" x1="121" y1="304" x2="101.4" y2="270.1"/>
	<line fill="none" stroke="#D4A256" stroke-linecap="round" stroke-miterlimit="10" x1="121" y1="260.4" x2="121" y2="257.4"/>
	<line fill="none" stroke="#D4A256" stroke-linecap="round" stroke-miterlimit="10" x1="121" y1="267.5" x2="121" y2="264.5"/>
	<line fill="none" stroke="#D4A256" stroke-linecap="round" stroke-miterlimit="10" x1="121" y1="304" x2="121" y2="271.7"/>
	<line fill="none" stroke="#D4A256" stroke-linecap="round" stroke-miterlimit="10" x1="-172.7" y1="304" x2="-177.3" y2="304"/>
	<g>
		<line fill="none" stroke="#D4A256" stroke-linecap="round" stroke-miterlimit="10" x1="121" y1="304" x2="397.4" y2="304"/>
		<line fill="none" stroke="#D4A256" stroke-linecap="round" stroke-miterlimit="10" x1="401.5" y1="304" x2="410.6" y2="304"/>
		<line fill="none" stroke="#D4A256" stroke-linecap="round" stroke-miterlimit="10" x1="121" y1="304" x2="161.4" y2="280.7"/>
		<line fill="none" stroke="#D4A256" stroke-linecap="round" stroke-miterlimit="10" x1="142.8" y1="266.1" x2="144.3" y2="263.6"/>
		<line fill="none" stroke="#D4A256" stroke-linecap="round" stroke-miterlimit="10" x1="121" y1="304" x2="140.6" y2="270.1"/>
		<line fill="none" stroke="#D4A256" stroke-linecap="round" stroke-miterlimit="10" x1="414.7" y1="304" x2="419.3" y2="304"/>
	</g>
</g>
</svg>
