<?xml version="1.0" encoding="utf-8"?>
<!-- Generator: Adobe Illustrator 18.1.1, SVG Export Plug-In . SVG Version: 6.00 Build 0)  -->
<!DOCTYPE svg PUBLIC "-//W3C//DTD SVG 1.0//EN" "http://www.w3.org/TR/2001/REC-SVG-20010904/DTD/svg10.dtd">
<svg version="1.0" id="Layer_1" xmlns="http://www.w3.org/2000/svg" xmlns:xlink="http://www.w3.org/1999/xlink" x="0px" y="0px"
	 width="600px" height="52.6px" viewBox="0 0 600 52.6" enable-background="new 0 0 600 52.6" xml:space="preserve">
<line fill="none" stroke="#D4A256" stroke-linecap="round" stroke-miterlimit="10" x1="23.6" y1="3" x2="300" y2="3"/>
<line fill="none" stroke="#D4A256" stroke-linecap="round" stroke-miterlimit="10" x1="10.4" y1="3" x2="19.5" y2="3"/>
<line fill="none" stroke="#D4A256" stroke-linecap="round" stroke-miterlimit="10" x1="259.6" y1="26.3" x2="300" y2="3"/>
<line fill="none" stroke="#D4A256" stroke-linecap="round" stroke-miterlimit="10" x1="276.7" y1="43.4" x2="278.2" y2="40.9"/>
<line fill="none" stroke="#D4A256" stroke-linecap="round" stroke-miterlimit="10" x1="280.4" y1="36.9" x2="300" y2="3"/>
<line fill="none" stroke="#D4A256" stroke-linecap="round" stroke-miterlimit="10" x1="300" y1="49.6" x2="300" y2="46.6"/>
<line fill="none" stroke="#D4A256" stroke-linecap="round" stroke-miterlimit="10" x1="300" y1="42.5" x2="300" y2="39.5"/>
<line fill="none" stroke="#D4A256" stroke-linecap="round" stroke-miterlimit="10" x1="300" y1="35.3" x2="300" y2="3"/>
<line fill="none" stroke="#D4A256" stroke-linecap="round" stroke-miterlimit="10" x1="1.7" y1="3" x2="6.3" y2="3"/>
<g>
	<line fill="none" stroke="#D4A256" stroke-linecap="round" stroke-miterlimit="10" x1="576.4" y1="3" x2="300" y2="3"/>
	<line fill="none" stroke="#D4A256" stroke-linecap="round" stroke-miterlimit="10" x1="589.6" y1="3" x2="580.5" y2="3"/>
	<line fill="none" stroke="#D4A256" stroke-linecap="round" stroke-miterlimit="10" x1="340.4" y1="26.3" x2="300" y2="3"/>
	<line fill="none" stroke="#D4A256" stroke-linecap="round" stroke-miterlimit="10" x1="323.3" y1="43.4" x2="321.8" y2="40.9"/>
	<line fill="none" stroke="#D4A256" stroke-linecap="round" stroke-miterlimit="10" x1="319.6" y1="36.9" x2="300" y2="3"/>
	<line fill="none" stroke="#D4A256" stroke-linecap="round" stroke-miterlimit="10" x1="598.3" y1="3" x2="593.7" y2="3"/>
</g>
</svg>
