<?xml version="1.0" encoding="utf-8"?>
<!-- Generator: Adobe Illustrator 18.1.1, SVG Export Plug-In . SVG Version: 6.00 Build 0)  -->
<!DOCTYPE svg PUBLIC "-//W3C//DTD SVG 1.0//EN" "http://www.w3.org/TR/2001/REC-SVG-20010904/DTD/svg10.dtd">
<svg version="1.0" id="Layer_1" xmlns="http://www.w3.org/2000/svg" xmlns:xlink="http://www.w3.org/1999/xlink" x="0px" y="0px"
	 width="158.4px" height="159.4px" viewBox="0 0 158.4 159.4" enable-background="new 0 0 158.4 159.4" xml:space="preserve">
<g>
	<path fill="#D4A256" d="M38.3,102.8c-0.2,0-0.4-0.1-0.5-0.4l-0.7-2.6c-0.1-0.3,0.1-0.5,0.4-0.6c0.3-0.1,0.5,0.1,0.6,0.4l0.7,2.6
		c0.1,0.3-0.1,0.5-0.4,0.6C38.4,102.8,38.3,102.8,38.3,102.8z"/>
</g>
<g>
	<path fill="#D4A256" d="M101.8,39.3c0,0-0.1,0-0.1,0l-2.6-0.7c-0.3-0.1-0.4-0.3-0.4-0.6c0.1-0.3,0.3-0.4,0.6-0.4l2.6,0.7
		c0.3,0.1,0.4,0.3,0.4,0.6C102.2,39.1,102,39.3,101.8,39.3z"/>
</g>
<g>
	<path fill="#D4A256" d="M15,78.7v-1c34.3,0,62.2-27.9,62.2-62.2h1C78.2,50.4,49.9,78.7,15,78.7z"/>
</g>
<g>
	<path fill="#D4A256" d="M15,73v-1c31.2,0,56.5-25.3,56.5-56.5h1C72.5,47.2,46.7,73,15,73z"/>
</g>
<g>
	<path fill="#D4A256" d="M15,137.4c-0.3,0-0.5-0.2-0.5-0.5V15h121.8c0.3,0,0.5,0.2,0.5,0.5s-0.2,0.5-0.5,0.5H15.5v120.8
		C15.5,137.2,15.3,137.4,15,137.4z"/>
</g>
<g>
	<path fill="#D4A256" d="M37.1,98.6c-0.2,0-0.4-0.1-0.5-0.4L14.6,15.7c-0.1-0.3,0.1-0.5,0.4-0.6c0.3-0.1,0.5,0.1,0.6,0.4l22.1,82.5
		c0.1,0.3-0.1,0.5-0.4,0.6C37.2,98.6,37.2,98.6,37.1,98.6z"/>
</g>
<g>
	<path fill="#D4A256" d="M57.8,90c-0.2,0-0.3-0.1-0.4-0.2l-42.7-74c-0.1-0.2-0.1-0.5,0.2-0.7c0.2-0.1,0.5-0.1,0.7,0.2l42.7,74
		c0.1,0.2,0.1,0.5-0.2,0.7C57.9,90,57.8,90,57.8,90z"/>
</g>
<g>
	<path fill="#D4A256" d="M75.4,76.4c-0.1,0-0.3,0-0.4-0.1L14.7,15.9c-0.2-0.2-0.2-0.5,0-0.7s0.5-0.2,0.7,0l60.4,60.4
		c0.2,0.2,0.2,0.5,0,0.7C75.7,76.4,75.6,76.4,75.4,76.4z"/>
</g>
<g>
	<path fill="#D4A256" d="M77.3,78.3c-0.1,0-0.3,0-0.4-0.1l-0.8-0.8c-0.2-0.2-0.2-0.5,0-0.7s0.5-0.2,0.7,0l0.8,0.8
		c0.2,0.2,0.2,0.5,0,0.7C77.6,78.3,77.5,78.3,77.3,78.3z"/>
</g>
<g>
	<path fill="#D4A256" d="M78.6,79.6c-0.1,0-0.3,0-0.4-0.1l-0.3-0.3c-0.2-0.2-0.2-0.5,0-0.7c0.2-0.2,0.5-0.2,0.7,0l0.3,0.3
		c0.2,0.2,0.2,0.5,0,0.7C78.8,79.5,78.7,79.6,78.6,79.6z"/>
</g>
<g>
	<path fill="#D4A256" d="M89,58.8c-0.1,0-0.2,0-0.2-0.1L14.8,16c-0.2-0.1-0.3-0.4-0.2-0.7s0.4-0.3,0.7-0.2l74,42.7
		c0.2,0.1,0.3,0.4,0.2,0.7C89.4,58.7,89.2,58.8,89,58.8z"/>
</g>
<g>
	<path fill="#D4A256" d="M97.6,38.1c0,0-0.1,0-0.1,0L14.9,16c-0.3-0.1-0.4-0.3-0.4-0.6c0.1-0.3,0.3-0.4,0.6-0.4l82.5,22.1
		c0.3,0.1,0.4,0.3,0.4,0.6C98,38,97.8,38.1,97.6,38.1z"/>
</g>
<g>
	<path fill="#D4A256" d="M146.8,16h-6.2c-0.3,0-0.5-0.2-0.5-0.5s0.2-0.5,0.5-0.5h6.2c0.3,0,0.5,0.2,0.5,0.5S147.1,16,146.8,16z"/>
</g>
<g>
	<path fill="#D4A256" d="M15,147.8c-0.3,0-0.5-0.2-0.5-0.5v-6.2c0-0.3,0.2-0.5,0.5-0.5s0.5,0.2,0.5,0.5v6.2
		C15.5,147.6,15.3,147.8,15,147.8z"/>
</g>
<g>
	<circle fill="#18183F" cx="15" cy="15.5" r="3.5"/>
	<path fill="#D4A256" d="M15,19.5c-2.2,0-4-1.8-4-4s1.8-4,4-4c2.2,0,4,1.8,4,4S17.2,19.5,15,19.5z M15,12.6c-1.6,0-3,1.3-3,3
		s1.3,3,3,3s3-1.3,3-3S16.7,12.6,15,12.6z"/>
</g>
</svg>
