<?xml version="1.0" encoding="utf-8"?>
<!-- Generator: Adobe Illustrator 18.1.1, SVG Export Plug-In . SVG Version: 6.00 Build 0)  -->
<!DOCTYPE svg PUBLIC "-//W3C//DTD SVG 1.0//EN" "http://www.w3.org/TR/2001/REC-SVG-20010904/DTD/svg10.dtd">
<svg version="1.0" id="Layer_1" xmlns="http://www.w3.org/2000/svg" xmlns:xlink="http://www.w3.org/1999/xlink" x="0px" y="0px"
	 width="158.4px" height="159.4px" viewBox="0 0 158.4 159.4" enable-background="new 0 0 158.4 159.4" xml:space="preserve">
<g>
	<g>
		<path fill="#D4A256" d="M120.1,102.8c0.2,0,0.4-0.1,0.5-0.4l0.7-2.6c0.1-0.3-0.1-0.5-0.4-0.6c-0.3-0.1-0.5,0.1-0.6,0.4l-0.7,2.6
			c-0.1,0.3,0.1,0.5,0.4,0.6C120,102.8,120.1,102.8,120.1,102.8z"/>
	</g>
	<g>
		<path fill="#D4A256" d="M56.6,39.3c0,0,0.1,0,0.1,0l2.6-0.7c0.3-0.1,0.4-0.3,0.4-0.6c-0.1-0.3-0.3-0.4-0.6-0.4l-2.6,0.7
			c-0.3,0.1-0.4,0.3-0.4,0.6C56.2,39.1,56.4,39.3,56.6,39.3z"/>
	</g>
	<g>
		<path fill="#D4A256" d="M143.4,78.7v-1c-34.3,0-62.2-27.9-62.2-62.2h-1C80.2,50.4,108.5,78.7,143.4,78.7z"/>
	</g>
	<g>
		<path fill="#D4A256" d="M143.4,73v-1c-31.2,0-56.5-25.3-56.5-56.5h-1C85.9,47.2,111.7,73,143.4,73z"/>
	</g>
	<g>
		<path fill="#D4A256" d="M143.4,137.4c0.3,0,0.5-0.2,0.5-0.5V15H22c-0.3,0-0.5,0.2-0.5,0.5S21.7,16,22,16h120.8v120.8
			C142.9,137.2,143.1,137.4,143.4,137.4z"/>
	</g>
	<g>
		<path fill="#D4A256" d="M121.3,98.6c0.2,0,0.4-0.1,0.5-0.4l22.1-82.5c0.1-0.3-0.1-0.5-0.4-0.6c-0.3-0.1-0.5,0.1-0.6,0.4
			l-22.1,82.5c-0.1,0.3,0.1,0.5,0.4,0.6C121.2,98.6,121.2,98.6,121.3,98.6z"/>
	</g>
	<g>
		<path fill="#D4A256" d="M100.6,90c0.2,0,0.3-0.1,0.4-0.2l42.7-74c0.1-0.2,0.1-0.5-0.2-0.7c-0.2-0.1-0.5-0.1-0.7,0.2l-42.7,74
			c-0.1,0.2-0.1,0.5,0.2,0.7C100.5,90,100.6,90,100.6,90z"/>
	</g>
	<g>
		<path fill="#D4A256" d="M83,76.4c0.1,0,0.3,0,0.4-0.1l60.4-60.4c0.2-0.2,0.2-0.5,0-0.7s-0.5-0.2-0.7,0L82.6,75.6
			c-0.2,0.2-0.2,0.5,0,0.7C82.7,76.4,82.8,76.4,83,76.4z"/>
	</g>
	<g>
		<path fill="#D4A256" d="M81.1,78.3c0.1,0,0.3,0,0.4-0.1l0.8-0.8c0.2-0.2,0.2-0.5,0-0.7s-0.5-0.2-0.7,0l-0.8,0.8
			c-0.2,0.2-0.2,0.5,0,0.7C80.8,78.3,80.9,78.3,81.1,78.3z"/>
	</g>
	<g>
		<path fill="#D4A256" d="M79.8,79.6c0.1,0,0.3,0,0.4-0.1l0.3-0.3c0.2-0.2,0.2-0.5,0-0.7c-0.2-0.2-0.5-0.2-0.7,0l-0.3,0.3
			c-0.2,0.2-0.2,0.5,0,0.7C79.6,79.5,79.7,79.6,79.8,79.6z"/>
	</g>
	<g>
		<path fill="#D4A256" d="M69.4,58.8c0.1,0,0.2,0,0.2-0.1l74-42.7c0.2-0.1,0.3-0.4,0.2-0.7s-0.4-0.3-0.7-0.2l-74,42.7
			c-0.2,0.1-0.3,0.4-0.2,0.7C69,58.7,69.2,58.8,69.4,58.8z"/>
	</g>
	<g>
		<path fill="#D4A256" d="M60.8,38.1c0,0,0.1,0,0.1,0L143.5,16c0.3-0.1,0.4-0.3,0.4-0.6c-0.1-0.3-0.3-0.4-0.6-0.4L60.7,37.2
			c-0.3,0.1-0.4,0.3-0.4,0.6C60.4,38,60.6,38.1,60.8,38.1z"/>
	</g>
	<g>
		<path fill="#D4A256" d="M11.6,16h6.2c0.3,0,0.5-0.2,0.5-0.5S18.1,15,17.8,15h-6.2c-0.3,0-0.5,0.2-0.5,0.5S11.3,16,11.6,16z"/>
	</g>
	<g>
		<path fill="#D4A256" d="M143.4,147.8c0.3,0,0.5-0.2,0.5-0.5v-6.2c0-0.3-0.2-0.5-0.5-0.5s-0.5,0.2-0.5,0.5v6.2
			C142.9,147.6,143.1,147.8,143.4,147.8z"/>
	</g>
	<g>
		<circle fill="#18183F" cx="143.4" cy="15.5" r="3.5"/>
		<path fill="#D4A256" d="M139.4,15.5c0-2.2,1.8-4,4-4c2.2,0,4,1.8,4,4s-1.8,4-4,4C141.2,19.5,139.4,17.7,139.4,15.5z M140.4,15.5
			c0,1.6,1.3,3,3,3s3-1.3,3-3s-1.3-3-3-3S140.4,13.9,140.4,15.5z"/>
	</g>
</g>
</svg>
