<?xml version="1.0" standalone="no"?>
<!DOCTYPE svg PUBLIC "-//W3C//DTD SVG 20010904//EN"
 "http://www.w3.org/TR/2001/REC-SVG-20010904/DTD/svg10.dtd">
<svg version="1.0" xmlns="http://www.w3.org/2000/svg"
 width="260.000000pt" height="260.000000pt" viewBox="0 0 260.000000 260.000000"
 preserveAspectRatio="xMidYMid meet">
<metadata>
Created by potrace 1.11, written by Peter Selinger 2001-2013
</metadata>
<g transform="translate(0.000000,260.000000) scale(0.100000,-0.100000)"
fill="#000000" stroke="none">
<path d="M1080 2470 c-259 -52 -455 -155 -635 -337 -140 -141 -221 -266 -285
-439 -113 -311 -86 -680 70 -969 99 -184 280 -369 465 -476 330 -191 746 -209
1095 -47 319 147 570 447 659 788 109 418 -17 854 -336 1160 -169 163 -350
260 -588 315 -102 24 -337 26 -445 5z m470 -99 c105 -27 124 -34 229 -83 231
-109 403 -283 514 -518 261 -555 28 -1224 -516 -1483 -62 -30 -191 -75 -235
-83 -15 -3 -45 -9 -67 -14 -66 -15 -321 -12 -405 5 -229 48 -412 146 -575 311
-230 231 -351 572 -316 887 43 378 238 681 556 866 97 57 309 125 415 135 111
10 316 -2 400 -23z"/>
<path d="M1200 2350 c0 -3 -2 -449 -3 -992 -1 -542 -5 -990 -10 -994 -4 -4
-37 -2 -74 5 -319 59 -576 270 -697 573 -48 120 -59 190 -59 353 1 120 5 171
16 203 9 23 14 42 12 42 -5 0 35 107 62 165 81 178 292 377 472 445 57 22 66
16 57 -35 -6 -30 -16 -39 -88 -77 -138 -73 -304 -245 -366 -380 -44 -96 -60
-133 -66 -153 -6 -20 3 -27 74 -54 17 -7 173 -102 265 -161 33 -22 81 -51 106
-66 75 -44 74 -39 77 -314 1 -140 -1 -251 -7 -259 -7 -12 -17 -9 -55 13 -115
67 -256 221 -256 279 0 24 -2 24 -80 24 -76 -1 -80 -2 -80 -23 0 -12 4 -24 10
-26 5 -2 29 -34 53 -71 91 -142 265 -290 407 -347 30 -12 71 -29 91 -37 20 -8
45 -13 55 -11 23 4 30 42 15 72 -13 23 -9 613 4 677 7 35 6 37 -37 58 -24 11
-47 21 -51 21 -3 0 -80 47 -169 103 -90 57 -174 110 -188 117 -14 7 -36 24
-49 37 l-25 24 28 57 c42 85 119 185 179 229 78 59 138 95 145 88 4 -4 6 -67
5 -140 l-1 -133 80 2 80 1 0 334 c0 294 -2 335 -16 343 -10 6 -24 4 -38 -6
-13 -8 -39 -17 -58 -21 -19 -3 -44 -10 -55 -14 -11 -5 -47 -19 -80 -31 -221
-85 -444 -298 -556 -530 -20 -41 -39 -86 -43 -100 -4 -14 -11 -34 -16 -45 -15
-33 -40 -173 -46 -260 -7 -90 13 -239 48 -355 78 -258 281 -502 524 -631 297
-157 653 -163 955 -14 108 53 183 108 279 204 89 90 110 114 157 189 116 180
173 405 159 629 -17 278 -147 541 -361 729 -135 118 -336 219 -479 241 -23 3
-45 9 -51 13 -5 5 -18 10 -28 12 -18 3 -18 -32 -17 -937 1 -747 3 -943 14
-953 10 -10 23 -10 64 -1 29 6 55 16 59 22 4 7 6 159 4 338 l-3 326 32 26 c17
15 37 27 44 27 12 0 56 -41 56 -52 0 -3 41 -77 90 -164 50 -86 90 -161 90
-164 0 -4 7 -13 15 -20 8 -7 12 -16 10 -21 -3 -4 -1 -16 4 -26 5 -10 12 -26
15 -36 9 -29 58 -19 63 13 5 33 30 70 48 70 23 0 18 32 -10 62 -22 24 -125
190 -125 202 0 3 -22 42 -50 88 -27 46 -50 90 -50 98 0 9 -5 21 -12 28 -16 16
9 42 102 107 39 28 90 65 113 82 23 18 47 33 53 33 23 0 64 42 64 66 0 13 -3
24 -7 24 -5 0 -17 19 -28 43 -83 181 -259 356 -439 436 -64 29 -76 43 -76 87
0 30 13 30 87 2 300 -112 530 -401 572 -718 7 -47 13 -98 15 -115 5 -43 -13
-209 -29 -269 -26 -95 -33 -116 -70 -188 -52 -101 -111 -182 -191 -259 -108
-102 -209 -163 -347 -208 -61 -19 -205 -51 -233 -51 -13 0 -15 140 -14 1003
l1 1002 -70 0 c-39 0 -71 -2 -71 -5z m385 -411 c4 -6 13 -8 21 -5 8 3 14 1 14
-4 0 -5 17 -17 38 -27 40 -19 55 -29 80 -55 9 -10 22 -18 29 -18 7 0 13 -3 13
-7 1 -5 23 -33 50 -63 28 -30 57 -70 65 -87 9 -18 20 -33 25 -33 21 0 8 -38
-22 -66 -35 -33 -269 -203 -306 -223 -12 -7 -27 -9 -32 -6 -11 7 -14 562 -4
589 7 18 20 21 29 5z"/>
</g>
</svg>
